<?xml version="1.0" standalone="no"?><!DOCTYPE svg PUBLIC "-//W3C//DTD SVG 1.1//EN" "http://www.w3.org/Graphics/SVG/1.1/DTD/svg11.dtd"><svg t="1772353104230" class="icon" viewBox="0 0 1024 1024" version="1.1" xmlns="http://www.w3.org/2000/svg" p-id="9219" xmlns:xlink="http://www.w3.org/1999/xlink" width="128" height="128"><path d="M397.230588 0c27.860381 57.598032 66.856382 174.159383-59.21931 306.080209-77.224028 80.210593-131.323513 164.218389-100.263241 258.721827 15.572801 47.102391 50.643603 107.004344 123.174458 118.865272 26.025777 4.266521 57.299376 0 74.237464-5.973129 104.700423-36.478754 89.511608-145.701689 66.3444-215.373975-2.986565-9.08769-8.149055-31.273598-10.06899-39.422653-15.914123-68.349665 33.108202-113.318795 48.169021-162.298455 1.194626-3.967864 2.261256-7.765068 2.986565-11.604937 1.791939-8.959694 2.858569-18.047383 3.327886-27.220403 0-77.949337-42.153226-112.2095-75.730746-153.594752C434.34932 24.063178 397.230588 0 397.230588 0z m267.766851 256.759227s-30.249633 14.33551-52.008889 37.67338c-18.986018 20.564631-36.820075 37.502719-55.208781 79.314623-1.194626 5.973129-2.218591 12.20225-3.19989 18.687362-9.898328 70.013608 48.97966 134.139417 30.676285 221.389769-4.778503 22.825887-15.146149 30.377629-33.321528 69.842947-21.759257 47.187721-16.340775 110.417561 15.359475 150.565522 28.67102 36.222762 80.125262 52.563537 130.214217 40.531949 89.85293-21.545931 130.768865-97.404672 123.558446-182.863086-5.589142-67.41103-34.772145-117.45732-117.499986-211.619436-40.958601-46.633073-68.562991-102.823154-66.643056-145.360367 5.845134-51.496907 28.073707-78.162663 28.073707-78.162663zM208.77836 648.255185c-0.938635 0.597313-1.877269 2.602578-2.517247 6.826433a2.005265 2.005265 0 0 1-0.255992 0.853304v0.426652c-4.863834 23.039213-7.039759 77.736011 4.949165 126.63034 15.060819 61.565896 60.456601 166.479645 188.238902 218.829857 107.430996 44.115826 243.959665 23.081878 334.92189-69.416295 22.569896-23.167208 17.36474-20.905952-20.863287-8.575707v-0.08533c-47.443712 15.188814-150.096205 23.295204-203.427717-42.665209-64.979113-80.423919-18.34604-143.483098-57.896688-134.395408-154.277396 35.582784-224.717655-62.547196-236.663914-89.68227-0.08533-0.08533-3.669208-10.623637-6.485112-8.746367z" p-id="9220" fill="#2c2c2c"></path></svg>