<?xml version="1.0" standalone="no"?><!DOCTYPE svg PUBLIC "-//W3C//DTD SVG 1.1//EN" "http://www.w3.org/Graphics/SVG/1.1/DTD/svg11.dtd"><svg t="1772357171096" class="icon" viewBox="0 0 1024 1024" version="1.1" xmlns="http://www.w3.org/2000/svg" p-id="6111" xmlns:xlink="http://www.w3.org/1999/xlink" width="128" height="128"><path d="M422.81984 883.4816q-22.94784 0-44.62592-8.5504-21.67296-8.5504-38.4-24.5248l26.17856-31.20128q11.99616 11.24864 27.37152 18.1504 15.45216 6.90176 30.37696 6.90176 17.92 0 26.99776-7.05024 9.07776-7.12704 9.07776-18.97472 0-8.5504-4.352-13.72672-4.352-5.248-12.00128-9.07264-7.64928-3.90144-17.84832-8.09984l-30.22336-12.9792q-11.47904-4.79744-22.05184-12.672-10.5728-7.87456-17.39776-19.79904-6.75328-11.92448-6.75328-28.42624 0-18.67776 10.05056-33.52576 10.12736-14.848 27.904-23.552 17.77152-8.69888 40.64768-8.69888 20.02432 0 38.77376 7.64928 18.74944 7.5776 32.62464 21.67808l-22.87616 28.49792q-10.94656-9.00096-22.57408-13.8752-11.6224-4.87424-25.94816-4.87424-14.9248 0-23.70048 6.3744-8.704 6.30272-8.704 17.40288 0 8.09984 4.87936 13.42464 4.87424 5.248 12.9024 9.00096 8.02304 3.74784 17.62304 7.64928l29.7728 12.22144q13.80352 5.55008 24.07424 13.8752 10.27584 8.25344 15.90272 19.87584 5.69856 11.62752 5.69856 28.12416 0 18.60096-9.97376 34.2784-9.90208 15.60064-28.57472 25.04704-18.67776 9.45152-44.8512 9.45152z m179.69152 0q-17.92512 0-32.09728-4.12672-14.10048-4.1216-25.05216-11.24864-10.87488-7.19872-18.82624-16.19968l21.22752-28.57472q10.34752 9.6768 22.79936 16.57344 12.45184 6.90176 27.8272 6.90176 11.77088 0 20.47488-3.52768 8.69888-3.59936 13.49632-10.34752 4.87936-6.82496 4.87936-16.34816 0-10.87488-5.4016-18.60096-5.3248-7.72608-18.90304-11.92448-13.57312-4.20352-38.2464-4.20352v-32.54784q20.99712 0 32.9216-4.2752 11.9296-4.352 17.1008-11.6992 5.17632-7.424 5.17632-16.87552 0-13.05088-8.02304-20.2496-7.95136-7.19872-22.35392-7.19872-12.14976 0-22.49728 5.47328-10.35264 5.47328-20.4032 14.9248l-23.17312-27.8272q14.85312-12.672 31.42656-20.32128 16.65024-7.72608 36.59776-7.72608 21.97504 0 38.62528 6.97344 16.65024 6.90176 25.87648 20.2496 9.22624 13.27616 9.22624 32.17408 0 18.00192-9.90208 30.52544-9.82528 12.45184-27.89888 19.72736v1.50016q12.8256 3.45088 23.10144 10.7264 10.27072 7.2704 16.19968 18.29888 6.00064 10.94656 6.00064 25.6512 0 20.39808-11.02848 34.79552-10.94656 14.32576-29.17376 21.82656-18.1504 7.5008-39.97696 7.5008zM868.16256 438.12864c-39.40864 3.072-78.32064 13.14816-117.16608 21.53472-3.87072 0.83456-5.81632 10.5984-8.6528 16.20992 4.98688 2.4064 9.96864 6.8096 14.976 6.83008 15.55968 0.1024 31.1296-1.47456 42.16832-2.12992 7.94624 0 11.35104-0.03072 14.75072 0.01024 28.55936 0.36864 32.34816 6.53312 20.19328 32.73728-5.70368 12.27776-12.04736 24.33536-16.5888 37.03808-1.9968 5.57568-0.18944 12.51328-0.11776 18.82624 6.22592-0.7424 13.1328-0.04608 18.49344-2.60096 6.51776-3.10272 13.54752-7.83872 17.17248-13.7984 14.63296-24.064 29.96224-48.0256 41.32352-73.66144 10.16832-22.9376-1.44896-42.95168-26.55232-40.99584z m-631.57248-266.752c-28.02176 0-50.09408 4.66944-66.22208 14.85824-19.10272 11.0336-30.98624 28.86144-35.65568 53.05856l47.96416 3.81952c2.54976-11.45856 8.91392-19.94752 18.2528-25.46688 8.064-5.0944 18.67776-7.2192 32.26112-7.2192 31.4112 0 47.11936 14.00832 47.11936 42.87488v8.48896l-47.96928 1.27488c-32.256 0.84992-57.30304 7.63904-75.13088 20.3776-19.52768 13.1584-28.86656 32.256-28.86656 56.8832 0 18.24768 6.78912 33.10592 20.3776 44.98944 13.1584 11.46368 30.98624 17.408 53.90848 17.408 19.0976 0 35.65568-3.39968 49.664-9.76384 12.30848-5.9392 22.92224-14.00832 31.4112-25.04704v28.86656H328.704v-140.0832c0-26.74176-6.78912-47.11936-20.3776-61.12256-15.27808-16.128-39.4752-24.19712-71.7312-24.19712z m43.71968 125.22496v11.0336c0 16.98304-6.78912 30.99136-19.52768 42.02496-12.73344 10.61376-28.4416 16.128-47.11936 16.128-10.60864 0-19.0976-2.9696-25.89184-8.064-6.79424-5.08928-9.76384-11.45856-9.76384-19.0976 0-26.3168 19.10272-39.90528 57.73312-40.7552l44.5696-1.26976z m75.9808-119.28064l73.86624 219.45856h44.99456l44.14464-160.4608 43.7248 160.4608h44.99456l73.86112-219.45856h-53.48352l-43.7248 162.1504-43.29984-162.1504h-44.5696l-43.29984 162.1504-43.71968-162.1504H356.29056z m435.95264-5.94432c-27.16672 0-48.81408 5.51936-65.37216 17.40288-16.97792 11.03872-25.04192 26.74176-25.04192 47.11936 0 19.0976 8.48896 33.96096 25.46688 44.5696 10.61376 6.79424 28.86656 13.1584 54.7584 19.10272 22.07744 5.0944 36.5056 8.91392 43.29984 12.30848 12.73344 5.94432 19.10272 14.00832 19.10272 24.19712 0 17.82784-16.97792 27.16672-50.93888 27.16672-16.13312 0-27.59168-2.9696-34.81088-8.064-7.21408-5.9392-12.30848-15.70816-14.85312-29.71648h-47.11936c4.66944 51.36384 37.35552 77.2608 98.47808 77.2608 65.79712 0 98.90816-23.3472 98.90816-70.0416 0-19.52768-8.91392-35.23584-26.3168-46.26944-11.88864-8.064-30.5664-14.85824-55.18336-20.80256-22.07232-5.51424-36.5056-9.76384-43.7248-12.73344-11.88352-5.0944-17.40288-11.45856-17.40288-18.2528 0-8.48896 3.39456-14.43328 11.03872-18.2528 6.36416-3.81952 16.128-5.51936 28.86144-5.51936 14.85824 0 25.89696 2.1248 33.11104 6.79424 6.79424 4.24448 11.88864 12.30848 15.2832 23.3472h47.11936c-5.0944-46.6944-36.93056-69.61664-94.66368-69.61664z" fill="#2c2c2c" p-id="6112"></path><path d="M821.41184 502.15424c-2.23744-6.05184-23.72096-8.7296-35.44576-6.87104-50.688 8.0384-100.99712 18.45248-151.48032 27.776-95.18592 17.58208-189.95712 16.33792-283.7504-8.5504-65.37728-17.35168-130.26816-36.5056-195.6096-53.98528-8.68352-2.31936-18.75456 0.49664-28.18048 0.93696l-1.3312 8.0896c8.8832 6.9376 17.17248 14.8736 26.7776 20.59776 16.88576 10.04544 34.49856 18.8928 51.9424 27.9808 97.8688 51.03104 201.4208 78.30016 312.38656 73.98912 21.5552-0.83968 43.07968-2.58048 64.60928-4.1216 75.95008-5.41696 147.34848-27.4688 215.75168-59.90912 11.39712-5.40672 30.70976-8.69376 24.33024-25.9328z" fill="#2c2c2c" p-id="6113"></path></svg>